<svg width="45" height="456" viewBox="0 0 45 456" fill="none" xmlns="http://www.w3.org/2000/svg">
<path d="M1.40044 27.4931L1.09564 27.6223V27.9534L1.09564 38.7035V39.5144L1.82021 39.1502L28.1782 25.9006H42.8942H43.3942V25.4006V15.2745V14.7745H42.8942L28.178 14.7745L1.81982 1.55307L1.09564 1.18981V1.99999L1.09564 12.7217V13.0523L1.39983 13.1818L18.2432 20.3509L1.40044 27.4931Z" stroke="#717171"/>
<path d="M1.09564 71.9749V72.4749H1.59564H42.8942H43.3942V71.9749V62.019V61.519H42.8942H28.8149V56.9671L43.1178 49.8157L43.3942 49.6775V49.3684V38.7034V38.2034H42.8942H42.4687H42.3472L42.2392 38.2592L26.0292 46.634C25.5339 45.673 24.9713 44.789 24.3405 43.9831L24.3399 43.9823C23.2493 42.5942 21.8715 41.5152 20.2147 40.746C18.5415 39.9692 16.4883 39.5933 14.076 39.5933C11.2732 39.5933 8.88079 40.2559 6.92813 41.6103C4.98424 42.9398 3.52746 44.8289 2.55014 47.2527C1.57542 49.67 1.09564 52.497 1.09564 55.7221L1.09564 71.9749ZM20.1281 55.7221V61.519H9.78239L9.78239 55.7221C9.78239 54.5525 9.99846 53.6097 10.4021 52.8698L10.4021 52.8698L10.4043 52.8656C10.8105 52.104 11.3888 51.5348 12.1478 51.1468C12.9131 50.7557 13.8523 50.5492 14.9836 50.5492C16.0946 50.5492 17.0248 50.7551 17.791 51.1468L17.795 51.1488C18.5339 51.5182 19.1025 52.0688 19.5084 52.813C19.911 53.551 20.1281 54.5117 20.1281 55.7221Z" stroke="#717171"/>
<path d="M1.09564 97.7149L1.09564 99.6586V100.008L1.42319 100.128L42.7217 115.303L43.3942 115.55V114.833V104.14V103.771L43.0416 103.662L35.6791 101.39V88.4886L43.042 86.2093L43.3942 86.1003V85.7316V75.0099V74.2921L42.7209 74.5409L1.42234 89.8009L1.09564 89.9217V90.2699L1.09564 92.3062V92.8795L1.09564 97.1341V97.7149ZM14.8125 94.9482L26.9923 91.1777V98.708L14.8125 94.9482Z" stroke="#717171"/>
<path d="M1.09564 149.466V149.966H1.59564H42.8942H43.3942V149.466V139.511V139.011H42.8942H28.8149V134.459L43.1178 127.307L43.3942 127.169V126.86V116.195V115.695H42.8942H42.4687H42.3472L42.2392 115.751L26.0292 124.126C25.5339 123.165 24.9713 122.281 24.3405 121.475L24.3399 121.474C23.2493 120.086 21.8715 119.007 20.2147 118.238C18.5415 117.461 16.4883 117.085 14.076 117.085C11.2732 117.085 8.88079 117.747 6.92813 119.102C4.98424 120.431 3.52746 122.321 2.55014 124.744C1.57542 127.162 1.09564 129.989 1.09564 133.214L1.09564 149.466ZM20.1281 133.214V139.011H9.78239L9.78239 133.214C9.78239 132.044 9.99846 131.101 10.4021 130.361L10.4021 130.361L10.4043 130.357C10.8105 129.596 11.3888 129.026 12.1478 128.638C12.9131 128.247 13.8523 128.041 14.9836 128.041C16.0946 128.041 17.0248 128.247 17.791 128.638L17.795 128.64C18.5339 129.01 19.1025 129.56 19.5084 130.305C19.911 131.043 20.1281 132.003 20.1281 133.214Z" stroke="#717171"/>
<path d="M22.1471 159.295C21.9903 159.579 21.8488 159.878 21.7223 160.192M22.1471 159.295C22.1473 159.295 22.1475 159.294 22.1477 159.294L21.7223 160.192M22.1471 159.295C23.0783 157.591 24.3224 156.348 25.8859 155.596C27.4083 154.865 29.0044 154.497 30.6691 154.497C33.4446 154.497 35.8039 155.099 37.718 156.335M22.1471 159.295L37.718 156.335M21.7223 160.192C20.7614 158.484 19.508 157.234 17.954 156.477C16.409 155.724 14.7549 155.348 12.9981 155.348C11.006 155.348 9.2507 155.729 7.74823 156.51C6.23199 157.289 4.97824 158.425 3.98856 159.909C3.00247 161.369 2.28213 163.13 1.8176 165.181C1.33451 167.23 1.09564 169.548 1.09564 172.13L1.09564 186.964V187.464H1.59564H42.8942H43.3942V186.964V183.933V183.163V177.008V176.508V170.513C43.3942 167.068 42.9354 164.146 41.998 161.764C41.0579 159.374 39.635 157.554 37.718 156.335M34.7358 176.508H25.8366V170.116C25.8366 168.899 26.0465 167.984 26.4225 167.33L26.4225 167.33L26.4271 167.322C26.7912 166.66 27.3045 166.189 27.977 165.893L27.977 165.893L27.9862 165.889C28.6818 165.567 29.524 165.397 30.5273 165.397C31.3219 165.397 32.0354 165.569 32.677 165.906L32.677 165.906L32.6815 165.909C33.2721 166.212 33.7713 166.723 34.1677 167.481C34.5336 168.197 34.7358 169.196 34.7358 170.513V176.508Z" stroke="#717171"/>
<path d="M1.59564 193.47H1.09564V193.97L1.09564 203.898V204.398H1.59564H42.8942H43.3942V203.898V193.97V193.47H42.8942H1.59564Z" stroke="#717171"/>
<path d="M35.2358 208.248H34.7358V208.748V225.579H1.59564H1.09564V226.079L1.09564 236.034V236.534H1.59564H42.8942H43.3942V236.034V230.124V229.624V226.079V225.579V208.748V208.248H42.8942H35.2358Z" stroke="#717171"/>
<path d="M1.59564 256.297H1.09564V256.797L1.09564 266.725V267.225H1.59564H25.4024L1.34855 280.898L1.09564 281.041V281.332L1.09564 291.288V291.788H1.59564H42.8942H43.3942V291.288V281.332V280.832H42.8942H19.0874L43.1413 267.159L43.3942 267.016V266.725V256.797V256.297H42.8942H1.59564Z" stroke="#717171"/>
<path d="M20.3267 296.603H20.8267H37.7886H37.9808L38.1236 296.732C38.95 297.478 39.8113 298.601 40.7114 300.076L40.7124 300.078C41.6119 301.564 42.3742 303.423 43.0064 305.646C43.6462 307.895 43.9615 310.524 43.9615 313.526C43.9615 316.321 43.518 318.87 42.6226 321.167L42.6212 321.171C41.7063 323.468 40.3703 325.449 38.6141 327.107L38.61 327.111L38.6099 327.111C36.8333 328.751 34.6732 330.013 32.1396 330.903L32.1352 330.904L32.1352 330.904C29.5773 331.776 26.6658 332.208 23.4079 332.208H21.1103C17.8514 332.208 14.9388 331.767 12.3798 330.875C9.82813 329.986 7.66732 328.733 5.90844 327.111L5.90827 327.111C4.13513 325.474 2.78826 323.552 1.87147 321.348L1.87087 321.347C0.954749 319.124 0.5 316.695 0.5 314.065C0.5 310.217 1.11164 307.041 2.36884 304.565C3.59962 302.104 5.31858 300.222 7.52756 298.94M20.3267 296.603L7.77909 299.372M20.3267 296.603V297.103L20.3267 313.98V314.48H20.8267H27.6625H28.1625V313.98V307.559M20.3267 296.603L28.1625 307.559M7.52756 298.94C7.52774 298.94 7.52793 298.94 7.52811 298.94L7.77909 299.372M7.52756 298.94C7.52717 298.94 7.52681 298.94 7.52643 298.941L7.77909 299.372M7.52756 298.94C9.69718 297.67 12.1985 296.904 15.021 296.634L15.5687 296.581V297.131V306.69V307.125L15.1375 307.185C13.8218 307.368 12.7313 307.712 11.8526 308.204L11.8423 308.21L11.8422 308.21C10.968 308.673 10.3142 309.336 9.86967 310.208L9.86617 310.214L9.86611 310.214C9.40598 311.083 9.15838 312.243 9.15838 313.725C9.15838 314.841 9.39682 315.848 9.86708 316.754M7.77909 299.372C9.75041 298.218 12.0136 297.489 14.5687 297.185V297.131H15.0687L15.1165 297.629C15.1005 297.631 15.0846 297.632 15.0687 297.634V306.69C13.7072 306.879 12.5538 307.239 11.6083 307.768C10.6439 308.279 9.91587 309.016 9.42422 309.98C8.91366 310.945 8.65838 312.193 8.65838 313.725C8.65838 314.916 8.91366 316.003 9.42422 316.986M9.86708 316.754C9.86676 316.754 9.86644 316.753 9.86611 316.752L9.42422 316.986M9.86708 316.754C10.3329 317.633 11.0453 318.395 12.0239 319.036L12.0275 319.038L12.0274 319.038C12.9874 319.678 14.2145 320.188 15.7233 320.556C17.227 320.904 19.0019 321.081 21.0536 321.081H23.4079C25.4417 321.081 27.2093 320.913 28.7154 320.583C30.2185 320.235 31.4514 319.727 32.428 319.071C33.3777 318.401 34.094 317.561 34.5847 316.547C35.0579 315.511 35.3031 314.272 35.3031 312.817C35.3031 311.785 35.2202 310.918 35.0613 310.209C34.8793 309.483 34.6661 308.904 34.4283 308.462C34.213 308.074 34.0176 307.777 33.8435 307.559H28.1625M9.86708 316.754C9.86738 316.755 9.86767 316.755 9.86797 316.756L9.42422 316.986M9.42422 316.986C9.93478 317.951 10.7101 318.773 11.7501 319.454C12.7712 320.135 14.0571 320.664 15.6077 321.043L28.1625 307.559" stroke="#717171"/>
<path d="M1.59564 337.391H1.09564V337.891L1.09564 347.818V348.318H1.59564H42.8942H43.3942V347.818V337.891V337.391H42.8942H1.59564Z" stroke="#717171"/>
<path d="M30.3551 364.315L30.3551 364.315L30.3606 364.313C30.8065 364.148 31.323 364.061 31.9172 364.061C32.5681 364.061 33.1616 364.218 33.707 364.531C34.2087 364.83 34.6386 365.312 34.9828 366.016C35.2991 366.701 35.4733 367.641 35.4733 368.865C35.4733 370.007 35.3721 371.007 35.175 371.868C34.9626 372.716 34.6321 373.412 34.1935 373.969C33.7438 374.518 33.1478 374.941 32.3894 375.234C31.6313 375.527 30.6754 375.683 29.5062 375.683H29.0062V376.183V386.167V386.667H29.5062C32.0133 386.667 34.2084 386.161 36.0735 385.13L36.0735 385.13L36.079 385.127C37.9034 384.087 39.4067 382.702 40.5843 380.974L40.5865 380.971C41.7344 379.259 42.5884 377.355 43.1502 375.263L43.1502 375.263L43.1516 375.258C43.6914 373.156 43.9615 371.025 43.9615 368.865C43.9615 366.522 43.7022 364.387 43.178 362.465C42.654 360.543 41.8831 358.878 40.8583 357.479L40.8555 357.475C39.8087 356.073 38.5294 354.99 37.0195 354.235C35.503 353.477 33.7793 353.105 31.8605 353.105C30.0614 353.105 28.4305 353.427 26.9772 354.084C25.5301 354.719 24.2458 355.659 23.125 356.897C21.9909 358.11 20.9921 359.597 20.1247 361.351C19.2409 363.08 18.4469 365.053 17.741 367.266C17.3667 368.426 16.9842 369.47 16.594 370.4C16.2063 371.304 15.8044 372.07 15.3902 372.7C14.9825 373.302 14.5607 373.754 14.1301 374.071C13.7055 374.352 13.2379 374.492 12.7145 374.492C12.061 374.492 11.4704 374.306 10.9298 373.929L10.9298 373.929L10.9241 373.925C10.3729 373.552 9.91697 372.99 9.56913 372.207C9.22727 371.438 9.04494 370.463 9.04494 369.262C9.04494 368.032 9.26237 367.05 9.66686 366.292C10.0772 365.523 10.6314 364.965 11.3297 364.599L11.3298 364.599L11.3379 364.595C12.0482 364.206 12.8804 364.004 13.8491 364.004H14.3491V363.504V353.605V353.105H13.8491C11.1518 353.105 8.79058 353.79 6.78744 355.178C4.77608 356.539 3.23524 358.429 2.16135 360.83C1.06785 363.213 0.528381 365.952 0.528381 369.035C0.528381 371.362 0.807145 373.516 1.36939 375.495C1.9122 377.471 2.71024 379.208 3.76886 380.698C4.81169 382.174 6.08652 383.332 7.59276 384.165C9.09216 385.004 10.7751 385.419 12.6294 385.419C14.5538 385.419 16.2659 385.016 17.7504 384.194L17.7529 384.192C19.1942 383.383 20.4538 382.289 21.5319 380.917L21.5346 380.913C22.581 379.557 23.4981 378.02 24.2875 376.307L24.2894 376.303C25.0529 374.604 25.7397 372.839 26.3499 371.008L26.3505 371.007C26.8571 369.468 27.34 368.245 27.7977 367.33L27.7979 367.33L27.8029 367.319C28.2464 366.377 28.6763 365.687 29.0857 365.226C29.4957 364.765 29.92 364.471 30.3551 364.315Z" stroke="#717171"/>
<path d="M35.2358 388.418H34.7358V388.918V406.884H25.8934V391.755V391.255H25.3934H17.9902H17.4902V391.755V406.884H9.78239L9.78239 388.833V388.333H9.28239H1.59564H1.09564V388.833L1.09564 406.884V407.384L1.09564 410.929V411.429L1.09564 417.34V417.84H1.59564H42.8942H43.3942V417.34V411.429V410.929V407.384V406.884V388.918V388.418H42.8942H35.2358Z" stroke="#717171"/>
<path d="M16.1182 433.28C17.6121 432.883 19.3517 432.685 21.3372 432.685H23.1242C25.7715 432.685 28.0029 433.034 29.8182 433.734C31.6146 434.415 32.9666 435.417 33.8743 436.741L16.1182 433.28ZM16.1182 433.28C14.6054 433.658 13.3479 434.226 12.3457 434.982M16.1182 433.28L12.3457 434.982M12.3457 434.982C11.3246 435.739 10.5588 436.684 10.0482 437.819L12.3457 434.982ZM43.3942 444.995V444.495V441.534C43.3942 438.715 42.9113 436.116 41.9386 433.743L41.9378 433.741C40.948 431.354 39.5483 429.283 37.7392 427.532C35.9296 425.781 33.7822 424.431 31.3031 423.482C28.8186 422.512 26.0903 422.03 23.1242 422.03H21.394C18.4096 422.03 15.6809 422.512 13.2143 423.482C10.7353 424.432 8.58806 425.79 6.77892 427.56C4.95033 429.311 3.55029 431.393 2.57943 433.8C1.58782 436.193 1.09564 438.82 1.09564 441.676L1.09564 444.495V444.995L1.09564 450.866V451.366L1.09564 454.951V455.451H1.59564H42.8942H43.3942V454.951V451.2V450.696V444.995ZM34.7358 444.495H9.78239V441.676C9.78239 440.279 10.0273 439.066 10.5029 438.027L10.5042 438.024C10.9789 436.969 11.6894 436.091 12.6434 435.384L12.6434 435.384L12.6469 435.381C13.5843 434.674 14.7766 434.131 16.2395 433.765L16.2395 433.765L16.2467 433.764C17.6887 433.38 19.3835 433.185 21.3372 433.185H23.1242C25.7308 433.185 27.897 433.53 29.6384 434.201L29.641 434.202C31.3612 434.854 32.6226 435.799 33.4619 437.024L33.4638 437.026C34.3028 438.232 34.7358 439.726 34.7358 441.534V444.495Z" stroke="#717171"/>
</svg>
