<svg width="45" height="456" viewBox="0 0 45 456" fill="none" xmlns="http://www.w3.org/2000/svg">
<mask id="path-1-outside-1_110_38" maskUnits="userSpaceOnUse" x="0" y="0" width="45" height="456" fill="black">
<rect fill="white" width="45" height="456"/>
<path d="M1.59565 27.9534L19.5219 20.3517L1.59565 12.7217V2L28.0596 15.2745H42.8942V25.4006H28.0596L1.59565 38.7035V27.9534Z"/>
<path d="M1.59565 71.9749V55.7221C1.59565 52.5453 2.06839 49.7845 3.01387 47.4397C3.95935 45.0949 5.35866 43.2891 7.2118 42.0221C9.06494 40.7363 11.353 40.0933 14.076 40.0933C16.4397 40.0933 18.4157 40.4621 20.0041 41.1996C21.5925 41.937 22.9068 42.9676 23.9468 44.2913C24.9679 45.596 25.8094 47.1183 26.4712 48.8579L28.3149 52.1198V65.7631L20.6281 65.8198V55.7221C20.6281 54.4552 20.4012 53.4057 19.9474 52.5737C19.4936 51.7417 18.8506 51.1176 18.0186 50.7016C17.1677 50.2667 16.156 50.0492 14.9836 50.0492C13.7923 50.0492 12.7712 50.2667 11.9203 50.7016C11.0694 51.1365 10.417 51.7795 9.96314 52.6304C9.50931 53.4624 9.2824 54.493 9.2824 55.7221V62.019H42.8942V71.9749H1.59565ZM42.8942 49.3685L24.6275 58.5018L24.5708 47.9503L42.4687 38.7035H42.8942V49.3685Z"/>
<path d="M10.2751 94.0708L42.8942 104.14V114.833L1.59565 99.6585V92.8795L10.2751 94.0708ZM42.8942 85.7316L10.2751 95.8293L1.59565 97.1341V90.2699L42.8942 75.0099V85.7316ZM27.4923 86.1287H35.1791V107.317H27.4923V86.1287Z"/>
<path d="M1.59565 149.466V133.214C1.59565 130.037 2.06839 127.276 3.01387 124.931C3.95935 122.586 5.35866 120.781 7.2118 119.514C9.06494 118.228 11.353 117.585 14.076 117.585C16.4397 117.585 18.4157 117.954 20.0041 118.691C21.5925 119.429 22.9068 120.459 23.9468 121.783C24.9679 123.088 25.8094 124.61 26.4712 126.349L28.3149 129.611V143.255L20.6281 143.311V133.214C20.6281 131.947 20.4012 130.897 19.9474 130.065C19.4936 129.233 18.8506 128.609 18.0186 128.193C17.1677 127.758 16.156 127.541 14.9836 127.541C13.7923 127.541 12.7712 127.758 11.9203 128.193C11.0694 128.628 10.417 129.271 9.96314 130.122C9.50931 130.954 9.2824 131.984 9.2824 133.214V139.51H42.8942V149.466H1.59565ZM42.8942 126.86L24.6275 135.993L24.5708 125.442L42.4687 116.195H42.8942V126.86Z"/>
<path d="M25.3366 170.116V180.752L18.8128 180.809V172.186C18.8128 170.636 18.6426 169.397 18.3023 168.471C17.943 167.544 17.423 166.873 16.7422 166.457C16.0615 166.022 15.2106 165.804 14.1894 165.804C13.017 165.804 12.0716 166.022 11.353 166.457C10.6344 166.892 10.1144 167.582 9.79296 168.527C9.45258 169.454 9.2824 170.655 9.2824 172.13V177.008H42.8942V186.964H1.59565V172.13C1.59565 169.577 1.83202 167.298 2.30476 165.294C2.75859 163.289 3.45825 161.587 4.40372 160.188C5.3492 158.77 6.54051 157.692 7.97764 156.955C9.39585 156.217 11.0694 155.848 12.9981 155.848C14.6811 155.848 16.26 156.208 17.735 156.926C19.2099 157.645 20.4107 158.846 21.3373 160.528C22.2449 162.193 22.7177 164.471 22.7555 167.364L25.3366 170.116ZM42.8942 170.513V183.163L35.2358 179.76V170.513C35.2358 169.151 35.0278 168.064 34.6118 167.251C34.1769 166.419 33.6096 165.823 32.9099 165.464C32.1914 165.086 31.3972 164.897 30.5273 164.897C29.4684 164.897 28.5513 165.076 27.776 165.436C27.0007 165.776 26.405 166.324 25.989 167.081C25.5541 167.837 25.3366 168.849 25.3366 170.116V178.483L18.8128 178.426V168.414L21.4223 166.088C21.3089 163.327 21.6965 161.143 22.5853 159.536C23.474 157.91 24.6464 156.747 26.1025 156.047C27.5585 155.347 29.0807 154.997 30.6691 154.997C33.3732 154.997 35.6329 155.584 37.4482 156.756C39.2635 157.91 40.625 159.64 41.5327 161.947C42.4403 164.254 42.8942 167.109 42.8942 170.513Z"/>
<path d="M1.59565 193.97H42.8942V203.898H1.59565V193.97Z"/>
<path d="M35.2358 208.748H42.8942V229.624H35.2358V208.748ZM1.59565 226.079H42.8942V236.034H1.59565V226.079Z"/>
<path d="M1.59565 256.797H42.8942V266.725L17.1961 281.332H42.8942V291.288H1.59565V281.332L27.2938 266.725H1.59565V256.797Z"/>
<path d="M20.8267 297.103H37.7886C38.5639 297.803 39.3959 298.88 40.2847 300.336C41.1545 301.774 41.9014 303.589 42.5254 305.782C43.1495 307.976 43.4615 310.557 43.4615 313.526C43.4615 316.268 43.0265 318.754 42.1567 320.986C41.268 323.217 39.9726 325.136 38.2708 326.744C36.55 328.332 34.4511 329.561 31.9739 330.431C29.4778 331.282 26.6225 331.707 23.4079 331.707H21.1103C17.8957 331.707 15.0404 331.273 12.5443 330.403C10.0482 329.533 7.94927 328.313 6.24741 326.744C4.52664 325.155 3.22188 323.293 2.33313 321.156C1.44438 319 1 316.637 1 314.065C1 310.264 1.60511 307.172 2.81532 304.79C4.00662 302.407 5.66121 300.601 7.77909 299.372C9.87805 298.143 12.3079 297.396 15.0687 297.131V306.69C13.7072 306.879 12.5538 307.238 11.6083 307.768C10.6439 308.279 9.91587 309.016 9.42422 309.98C8.91366 310.945 8.65838 312.193 8.65838 313.724C8.65838 314.916 8.91366 316.003 9.42422 316.986C9.93478 317.951 10.7101 318.773 11.7501 319.454C12.7712 320.135 14.0571 320.664 15.6077 321.042C17.1582 321.402 18.9736 321.581 21.0536 321.581H23.4079C25.469 321.581 27.2749 321.411 28.8255 321.071C30.376 320.712 31.6713 320.182 32.7114 319.482C33.7325 318.764 34.5078 317.856 35.0373 316.759C35.5478 315.644 35.8031 314.33 35.8031 312.817C35.8031 311.758 35.718 310.85 35.5478 310.094C35.3587 309.337 35.1318 308.713 34.8671 308.222C34.5834 307.711 34.3187 307.324 34.0729 307.059H27.6625V313.98H20.8267V297.103Z"/>
<path d="M1.59565 337.891H42.8942V347.818H1.59565V337.891Z"/>
<path d="M31.9172 363.561C31.2742 363.561 30.6975 363.655 30.1869 363.844C29.6575 364.033 29.1658 364.383 28.712 364.894C28.2582 365.404 27.8043 366.142 27.3505 367.106C26.8778 368.052 26.3861 369.3 25.8756 370.85C25.2704 372.666 24.5897 374.415 23.8333 376.098C23.058 377.781 22.1598 379.284 21.1387 380.608C20.0987 381.931 18.8885 382.981 17.5081 383.756C16.1088 384.531 14.4825 384.919 12.6294 384.919C10.8519 384.919 9.25403 384.522 7.83581 383.728C6.39869 382.934 5.17902 381.827 4.17681 380.409C3.15569 378.972 2.3804 377.289 1.85093 375.36C1.30255 373.431 1.02836 371.323 1.02836 369.035C1.02836 366.009 1.55783 363.343 2.61677 361.036C3.6568 358.71 5.1412 356.895 7.06998 355.59C8.97984 354.267 11.2395 353.605 13.8491 353.605V363.504C12.809 363.504 11.8919 363.721 11.0977 364.156C10.3035 364.572 9.6795 365.206 9.22567 366.057C8.77184 366.908 8.54492 367.976 8.54492 369.262C8.54492 370.51 8.73402 371.559 9.11221 372.41C9.4904 373.261 10.001 373.904 10.6439 374.339C11.2679 374.774 11.9581 374.992 12.7145 374.992C13.3385 374.992 13.9058 374.821 14.4163 374.481C14.908 374.122 15.3713 373.621 15.8062 372.978C16.2411 372.316 16.6571 371.522 17.0542 370.595C17.4513 369.65 17.839 368.591 18.2172 367.418C18.9168 365.225 19.7016 363.277 20.5714 361.575C21.4223 359.854 22.3962 358.408 23.4929 357.235C24.5708 356.044 25.7999 355.146 27.1803 354.541C28.5607 353.917 30.1208 353.605 31.8604 353.605C33.7136 353.605 35.3587 353.964 36.7958 354.683C38.233 355.401 39.4526 356.432 40.4548 357.774C41.4381 359.117 42.1851 360.724 42.6956 362.596C43.2062 364.468 43.4615 366.558 43.4615 368.865C43.4615 370.983 43.1967 373.072 42.6673 375.133C42.1189 377.176 41.2869 379.029 40.1712 380.693C39.0366 382.357 37.59 383.69 35.8314 384.692C34.0539 385.675 31.9455 386.167 29.5062 386.167V376.183C30.7164 376.183 31.7375 376.022 32.5695 375.701C33.4016 375.379 34.0729 374.906 34.5834 374.282C35.0751 373.658 35.4343 372.893 35.6613 371.985C35.8693 371.077 35.9733 370.037 35.9733 368.865C35.9733 367.598 35.7936 366.577 35.4343 365.801C35.0562 365.026 34.5645 364.459 33.9594 364.1C33.3354 363.74 32.6546 363.561 31.9172 363.561Z"/>
<path d="M35.2358 388.918H42.8942V410.929H35.2358V388.918ZM1.59565 407.384H42.8942V417.34H1.59565V407.384ZM17.9903 391.755H25.3934V410.929H17.9903V391.755ZM1.59565 388.833H9.2824V410.929H1.59565V388.833Z"/>
<path d="M42.8942 441.534V450.696L35.2358 450.639V441.534C35.2358 439.643 34.782 438.046 33.8743 436.741C32.9666 435.417 31.6146 434.415 29.8182 433.734C28.0029 433.034 25.7716 432.685 23.1242 432.685H21.3373C19.3517 432.685 17.6121 432.883 16.1182 433.28C14.6054 433.658 13.348 434.226 12.3457 434.982C11.3246 435.739 10.5588 436.684 10.0482 437.819C9.53768 438.934 9.2824 440.22 9.2824 441.676V450.866H1.59565V441.676C1.59565 438.878 2.07785 436.315 3.04223 433.989C3.98771 431.645 5.3492 429.621 7.1267 427.919C8.8853 426.199 10.9748 424.875 13.3952 423.948C15.7967 423.003 18.463 422.53 21.394 422.53H23.1242C26.0363 422.53 28.7025 423.003 31.123 423.948C33.5434 424.875 35.6329 426.189 37.3915 427.891C39.1501 429.593 40.5116 431.607 41.476 433.933C42.4214 436.24 42.8942 438.774 42.8942 441.534ZM1.59565 444.995H42.8942V454.951H1.59565V444.995Z"/>
</mask>
<path d="M1.59565 27.9534L1.20525 27.0328L0.595652 27.2913V27.9534H1.59565ZM19.5219 20.3517L19.9123 21.2724L22.0794 20.3535L19.9136 19.4316L19.5219 20.3517ZM1.59565 12.7217H0.595652V13.3829L1.20402 13.6419L1.59565 12.7217ZM1.59565 2L2.04401 1.10615L0.595652 0.379638L0.595652 2H1.59565ZM28.0596 15.2745L27.6112 16.1684L27.8229 16.2745H28.0596V15.2745ZM42.8942 15.2745H43.8942V14.2745H42.8942V15.2745ZM42.8942 25.4006V26.4006H43.8942V25.4006H42.8942ZM28.0596 25.4006V24.4006H27.8224L27.6105 24.5071L28.0596 25.4006ZM1.59565 38.7035H0.595652V40.3254L2.04478 39.597L1.59565 38.7035ZM1.59565 71.9749H0.595652V72.9749H1.59565V71.9749ZM7.2118 42.0221L7.77619 42.8477L7.78188 42.8437L7.2118 42.0221ZM23.9468 44.2913L24.7343 43.675L24.7331 43.6735L23.9468 44.2913ZM26.4712 48.8579L25.5366 49.2135L25.5634 49.2842L25.6006 49.35L26.4712 48.8579ZM28.3149 52.1198H29.3149V51.8568L29.1855 51.6278L28.3149 52.1198ZM28.3149 65.7631L28.3223 66.7631L29.3149 66.7558V65.7631H28.3149ZM20.6281 65.8198H19.6281V66.8272L20.6355 66.8198L20.6281 65.8198ZM18.0186 50.7016L17.5635 51.5921L17.5714 51.5961L18.0186 50.7016ZM9.96314 52.6304L10.8411 53.1093L10.8455 53.101L9.96314 52.6304ZM9.2824 62.019H8.2824V63.019H9.2824V62.019ZM42.8942 62.019H43.8942V61.019H42.8942V62.019ZM42.8942 71.9749V72.9749H43.8942V71.9749H42.8942ZM42.8942 49.3685L43.3414 50.2629L43.8942 49.9865V49.3685H42.8942ZM24.6275 58.5018L23.6275 58.5072L23.6362 60.1155L25.0747 59.3963L24.6275 58.5018ZM24.5708 47.9503L24.1118 47.0618L23.5675 47.343L23.5708 47.9557L24.5708 47.9503ZM42.4687 38.7035V37.7035H42.2257L42.0097 37.8151L42.4687 38.7035ZM42.8942 38.7035H43.8942V37.7035H42.8942V38.7035ZM10.2751 94.0708L10.5701 93.1152L10.4921 93.0912L10.4111 93.08L10.2751 94.0708ZM42.8942 104.14H43.8942V103.402L43.1891 103.185L42.8942 104.14ZM42.8942 114.833L42.5493 115.772L43.8942 116.266V114.833H42.8942ZM1.59565 99.6585H0.595652V100.356L1.25075 100.597L1.59565 99.6585ZM1.59565 92.8795L1.73163 91.8887L0.595652 91.7328V92.8795H1.59565ZM42.8942 85.7316L43.1899 86.6869L43.8942 86.4689V85.7316H42.8942ZM10.2751 95.8293L10.4238 96.8182L10.4986 96.807L10.5709 96.7846L10.2751 95.8293ZM1.59565 97.1341H0.595652V98.2957L1.74431 98.123L1.59565 97.1341ZM1.59565 90.2699L1.24905 89.3319L0.595652 89.5733V90.2699H1.59565ZM42.8942 75.0099H43.8942V73.5743L42.5476 74.0719L42.8942 75.0099ZM27.4923 86.1287V85.1287H26.4923V86.1287H27.4923ZM35.1791 86.1287H36.1791V85.1287H35.1791V86.1287ZM35.1791 107.317V108.317H36.1791V107.317H35.1791ZM27.4923 107.317H26.4923V108.317H27.4923V107.317ZM1.59565 149.466H0.595652V150.466H1.59565V149.466ZM7.2118 119.514L7.77619 120.339L7.78188 120.335L7.2118 119.514ZM23.9468 121.783L24.7343 121.166L24.7331 121.165L23.9468 121.783ZM26.4712 126.349L25.5366 126.705L25.5634 126.776L25.6006 126.841L26.4712 126.349ZM28.3149 129.611H29.3149V129.348L29.1855 129.119L28.3149 129.611ZM28.3149 143.255L28.3223 144.255L29.3149 144.247V143.255H28.3149ZM20.6281 143.311H19.6281V144.319L20.6355 144.311L20.6281 143.311ZM18.0186 128.193L17.5635 129.084L17.5714 129.088L18.0186 128.193ZM9.96314 130.122L10.8411 130.601L10.8455 130.592L9.96314 130.122ZM9.2824 139.51H8.2824V140.51H9.2824V139.51ZM42.8942 139.51H43.8942V138.51H42.8942V139.51ZM42.8942 149.466V150.466H43.8942V149.466H42.8942ZM42.8942 126.86L43.3414 127.754L43.8942 127.478V126.86H42.8942ZM24.6275 135.993L23.6275 135.999L23.6362 137.607L25.0747 136.888L24.6275 135.993ZM24.5708 125.442L24.1118 124.553L23.5675 124.835L23.5708 125.447L24.5708 125.442ZM42.4687 116.195V115.195H42.2257L42.0097 115.307L42.4687 116.195ZM42.8942 116.195H43.8942V115.195H42.8942V116.195ZM25.3366 180.752L25.3453 181.752L26.3366 181.744V180.752H25.3366ZM18.8128 180.809H17.8128V181.818L18.8215 181.809L18.8128 180.809ZM18.3023 168.471L19.2409 168.126L19.2379 168.117L19.2346 168.109L18.3023 168.471ZM16.7422 166.457L16.2038 167.299L16.2123 167.305L16.2208 167.31L16.7422 166.457ZM9.79296 168.527L10.7316 168.872L10.7358 168.861L10.7397 168.849L9.79296 168.527ZM9.2824 177.008H8.2824V178.008H9.2824V177.008ZM42.8942 177.008H43.8942V176.008H42.8942V177.008ZM42.8942 186.964V187.964H43.8942V186.964H42.8942ZM1.59565 186.964H0.595652V187.964H1.59565V186.964ZM2.30476 165.294L3.2781 165.523L3.28007 165.515L2.30476 165.294ZM4.40372 160.188L5.23233 160.748L5.23577 160.743L4.40372 160.188ZM7.97764 156.955L8.4342 157.844L8.43899 157.842L7.97764 156.955ZM21.3373 160.528L22.2152 160.05L22.2133 160.046L21.3373 160.528ZM22.7555 167.364L21.7556 167.377L21.7606 167.765L22.0262 168.048L22.7555 167.364ZM42.8942 183.163L42.488 184.077L43.8942 184.702V183.163H42.8942ZM35.2358 179.76H34.2358V180.409L34.8297 180.673L35.2358 179.76ZM34.6118 167.251L35.5021 166.795L35.498 166.788L34.6118 167.251ZM32.9099 165.464L32.4441 166.349L32.4531 166.353L32.9099 165.464ZM27.776 165.436L28.178 166.351L28.1872 166.347L28.1964 166.343L27.776 165.436ZM25.989 167.081L26.8559 167.579L26.8607 167.571L26.8652 167.563L25.989 167.081ZM25.3366 178.483L25.3279 179.483L26.3366 179.492V178.483H25.3366ZM18.8128 178.426H17.8128V179.418L18.8041 179.426L18.8128 178.426ZM18.8128 168.414L18.1475 167.667L17.8128 167.966V168.414H18.8128ZM21.4223 166.088L22.0877 166.834L22.4409 166.52L22.4215 166.047L21.4223 166.088ZM22.5853 159.536L23.4604 160.02L23.4628 160.015L22.5853 159.536ZM37.4482 156.756L36.9057 157.596L36.9119 157.6L37.4482 156.756ZM1.59565 193.97V192.97H0.595652V193.97H1.59565ZM42.8942 193.97H43.8942V192.97H42.8942V193.97ZM42.8942 203.898V204.898H43.8942V203.898H42.8942ZM1.59565 203.898H0.595652V204.898H1.59565V203.898ZM35.2358 208.748V207.748H34.2358V208.748H35.2358ZM42.8942 208.748H43.8942V207.748H42.8942V208.748ZM42.8942 229.624V230.624H43.8942V229.624H42.8942ZM35.2358 229.624H34.2358V230.624H35.2358V229.624ZM1.59565 226.079V225.079H0.595652V226.079H1.59565ZM42.8942 226.079H43.8942V225.079H42.8942V226.079ZM42.8942 236.034V237.034H43.8942V236.034H42.8942ZM1.59565 236.034H0.595652V237.034H1.59565V236.034ZM1.59565 256.797V255.797H0.595652V256.797H1.59565ZM42.8942 256.797H43.8942V255.797H42.8942V256.797ZM42.8942 266.725L43.3884 267.594L43.8942 267.307V266.725H42.8942ZM17.1961 281.332L16.7019 280.463L13.4133 282.332H17.1961V281.332ZM42.8942 281.332H43.8942V280.332H42.8942V281.332ZM42.8942 291.288V292.288H43.8942V291.288H42.8942ZM1.59565 291.288H0.595652V292.288H1.59565V291.288ZM1.59565 281.332L1.10148 280.463L0.595652 280.751V281.332H1.59565ZM27.2938 266.725L27.7879 267.594L31.0766 265.725H27.2938V266.725ZM1.59565 266.725H0.595652V267.725H1.59565V266.725ZM20.8267 297.103V296.103H19.8267V297.103H20.8267ZM37.7886 297.103L38.4586 296.361L38.1731 296.103H37.7886V297.103ZM40.2847 300.336L41.1402 299.819L41.1382 299.815L40.2847 300.336ZM42.1567 320.986L43.0858 321.356L43.0884 321.349L42.1567 320.986ZM38.2708 326.744L38.9491 327.479L38.9574 327.471L38.2708 326.744ZM31.9739 330.431L32.2966 331.378L32.3052 331.375L31.9739 330.431ZM6.24741 326.744L5.56913 327.479L5.56947 327.479L6.24741 326.744ZM2.33313 321.156L1.40861 321.537L1.40981 321.54L2.33313 321.156ZM2.81532 304.79L3.70692 305.243L3.70975 305.237L2.81532 304.79ZM7.77909 299.372L8.28104 300.237L8.28441 300.235L7.77909 299.372ZM15.0687 297.131H16.0687V296.031L14.9733 296.136L15.0687 297.131ZM15.0687 306.69L15.2063 307.681L16.0687 307.561V306.69H15.0687ZM11.6083 307.768L12.0762 308.652L12.0866 308.646L12.0969 308.64L11.6083 307.768ZM9.42422 309.98L10.308 310.448L10.3116 310.441L10.3151 310.435L9.42422 309.98ZM9.42422 316.986L8.53669 317.447L8.54043 317.454L9.42422 316.986ZM11.7501 319.454L12.3048 318.622L12.2978 318.617L11.7501 319.454ZM15.6077 321.042L15.3707 322.014L15.3819 322.017L15.6077 321.042ZM28.8255 321.071L29.0399 322.048L29.0512 322.045L28.8255 321.071ZM32.7114 319.482L33.2695 320.312L33.2783 320.306L33.2869 320.3L32.7114 319.482ZM35.0373 316.759L35.9378 317.194L35.9423 317.185L35.9466 317.176L35.0373 316.759ZM35.5478 310.094L36.5234 309.874L36.5208 309.863L36.518 309.851L35.5478 310.094ZM34.8671 308.222L35.7476 307.748L35.7412 307.736L34.8671 308.222ZM34.0729 307.059L34.8057 306.378L34.5089 306.059H34.0729V307.059ZM27.6625 307.059V306.059H26.6625V307.059H27.6625ZM27.6625 313.98V314.98H28.6625V313.98H27.6625ZM20.8267 313.98H19.8267V314.98H20.8267V313.98ZM1.59565 337.891V336.891H0.595652V337.891H1.59565ZM42.8942 337.891H43.8942V336.891H42.8942V337.891ZM42.8942 347.818V348.818H43.8942V347.818H42.8942ZM1.59565 347.818H0.595652V348.818H1.59565V347.818ZM30.1869 363.844L30.5233 364.786L30.5343 364.782L30.1869 363.844ZM27.3505 367.106L28.2449 367.553L28.2503 367.543L28.2553 367.532L27.3505 367.106ZM25.8756 370.85L26.8242 371.167L26.8254 371.163L25.8756 370.85ZM23.8333 376.098L24.7416 376.516L24.7454 376.508L23.8333 376.098ZM21.1387 380.608L21.9251 381.226L21.9305 381.218L21.1387 380.608ZM17.5081 383.756L17.9927 384.631L17.9978 384.628L17.5081 383.756ZM7.83581 383.728L8.32442 382.855L8.3195 382.853L7.83581 383.728ZM4.17681 380.409L4.99348 379.832L4.99199 379.83L4.17681 380.409ZM1.85093 375.36L2.8153 375.096L2.81281 375.087L1.85093 375.36ZM2.61677 361.036L3.52564 361.453L3.52966 361.444L2.61677 361.036ZM7.06998 355.59L7.63032 356.419L7.63961 356.412L7.06998 355.59ZM13.8491 353.605H14.8491V352.605H13.8491V353.605ZM13.8491 363.504V364.504H14.8491V363.504H13.8491ZM11.0977 364.156L11.5617 365.042L11.5699 365.038L11.578 365.033L11.0977 364.156ZM10.6439 374.339L11.2157 373.519L11.2042 373.511L10.6439 374.339ZM14.4163 374.481L14.971 375.313L14.989 375.301L15.0064 375.288L14.4163 374.481ZM15.8062 372.978L16.6346 373.538L16.6419 373.527L15.8062 372.978ZM17.0542 370.595L17.9734 370.989L17.9762 370.982L17.0542 370.595ZM18.2172 367.418L19.1689 367.725L19.1699 367.722L18.2172 367.418ZM20.5714 361.575L21.4619 362.03L21.4678 362.018L20.5714 361.575ZM23.4929 357.235L24.2232 357.919L24.2289 357.912L24.2345 357.906L23.4929 357.235ZM27.1803 354.541L27.5818 355.457L27.5922 355.452L27.1803 354.541ZM40.4548 357.774L41.2616 357.183L41.2562 357.176L40.4548 357.774ZM42.6673 375.133L43.6331 375.393L43.6358 375.382L42.6673 375.133ZM40.1712 380.693L40.9975 381.256L41.0018 381.25L40.1712 380.693ZM35.8314 384.692L36.3155 385.567L36.3266 385.561L35.8314 384.692ZM29.5062 386.167H28.5062V387.167H29.5062V386.167ZM29.5062 376.183V375.183H28.5062V376.183H29.5062ZM34.5834 374.282L35.3574 374.916L35.3632 374.909L35.3689 374.901L34.5834 374.282ZM35.6613 371.985L36.6314 372.227L36.6338 372.218L36.636 372.208L35.6613 371.985ZM35.4343 365.801L36.3417 365.381L36.3375 365.372L36.3331 365.363L35.4343 365.801ZM33.9594 364.1L34.47 363.24L34.4584 363.233L33.9594 364.1ZM35.2358 388.918V387.918H34.2358V388.918H35.2358ZM42.8942 388.918H43.8942V387.918H42.8942V388.918ZM42.8942 410.929V411.929H43.8942V410.929H42.8942ZM35.2358 410.929H34.2358V411.929H35.2358V410.929ZM1.59565 407.384V406.384H0.595652V407.384H1.59565ZM42.8942 407.384H43.8942V406.384H42.8942V407.384ZM42.8942 417.34V418.34H43.8942V417.34H42.8942ZM1.59565 417.34H0.595652V418.34H1.59565V417.34ZM17.9903 391.755V390.755H16.9903V391.755H17.9903ZM25.3934 391.755H26.3934V390.755H25.3934V391.755ZM25.3934 410.929V411.929H26.3934V410.929H25.3934ZM17.9903 410.929H16.9903V411.929H17.9903V410.929ZM1.59565 388.833V387.833H0.595652V388.833H1.59565ZM9.2824 388.833H10.2824V387.833H9.2824V388.833ZM9.2824 410.929V411.929H10.2824V410.929H9.2824ZM1.59565 410.929H0.595652V411.929H1.59565V410.929ZM42.8942 450.696L42.8868 451.696L43.8942 451.703V450.696H42.8942ZM35.2358 450.639H34.2358V451.632L35.2284 451.639L35.2358 450.639ZM33.8743 436.741L33.0496 437.306L33.0534 437.312L33.8743 436.741ZM29.8182 433.734L29.4586 434.667L29.4638 434.669L29.8182 433.734ZM16.1182 433.28L16.3607 434.25L16.3679 434.249L16.3751 434.247L16.1182 433.28ZM12.3457 434.982L12.941 435.786L12.9482 435.78L12.3457 434.982ZM10.0482 437.819L10.9576 438.235L10.9602 438.229L10.0482 437.819ZM9.2824 450.866V451.866H10.2824V450.866H9.2824ZM1.59565 450.866H0.595652V451.866H1.59565V450.866ZM3.04223 433.989L3.96602 434.372L3.96968 434.363L3.04223 433.989ZM7.1267 427.919L7.81832 428.642L7.82608 428.634L7.1267 427.919ZM13.3952 423.948L13.7528 424.882L13.7616 424.879L13.3952 423.948ZM31.123 423.948L30.7591 424.88L30.7655 424.882L31.123 423.948ZM41.476 433.933L42.4013 433.553L42.3997 433.55L41.476 433.933ZM1.59565 444.995V443.995H0.595652V444.995H1.59565ZM42.8942 444.995H43.8942V443.995H42.8942V444.995ZM42.8942 454.951V455.951H43.8942V454.951H42.8942ZM1.59565 454.951H0.595652V455.951H1.59565V454.951ZM1.98605 28.874L19.9123 21.2724L19.1315 19.4311L1.20525 27.0328L1.98605 28.874ZM19.9136 19.4316L1.98729 11.8016L1.20402 13.6419L19.1303 21.2719L19.9136 19.4316ZM2.59565 12.7217V2H0.595652V12.7217H2.59565ZM1.14729 2.89385L27.6112 16.1684L28.508 14.3807L2.04401 1.10615L1.14729 2.89385ZM28.0596 16.2745H42.8942V14.2745H28.0596V16.2745ZM41.8942 15.2745V25.4006H43.8942V15.2745H41.8942ZM42.8942 24.4006H28.0596V26.4006H42.8942V24.4006ZM27.6105 24.5071L1.14652 37.81L2.04478 39.597L28.5087 26.2941L27.6105 24.5071ZM2.59565 38.7035V27.9534H0.595652V38.7035H2.59565ZM2.59565 71.9749V55.7221H0.595652V71.9749H2.59565ZM2.59565 55.7221C2.59565 52.6418 3.05432 50.0134 3.94131 47.8137L2.08643 47.0658C1.08246 49.5556 0.595652 52.4488 0.595652 55.7221H2.59565ZM3.94131 47.8137C4.82262 45.628 6.10602 43.9895 7.77618 42.8476L6.64742 41.1966C4.6113 42.5887 3.09608 44.5618 2.08643 47.0658L3.94131 47.8137ZM7.78188 42.8437C9.43548 41.6963 11.5138 41.0933 14.076 41.0933V39.0933C11.1922 39.0933 8.6944 39.7762 6.64172 41.2005L7.78188 42.8437ZM14.076 41.0933C16.3424 41.0933 18.1642 41.4478 19.583 42.1066L20.4252 40.2925C18.6672 39.4763 16.5369 39.0933 14.076 39.0933V41.0933ZM19.583 42.1066C21.0346 42.7805 22.2217 43.7143 23.1605 44.9091L24.7331 43.6735C23.5918 42.2209 22.1505 41.0936 20.4252 40.2925L19.583 42.1066ZM23.1593 44.9076C24.1114 46.1242 24.9061 47.5562 25.5366 49.2135L27.4059 48.5024C26.7127 46.6803 25.8244 45.0678 24.7343 43.675L23.1593 44.9076ZM25.6006 49.35L27.4443 52.6119L29.1855 51.6278L27.3418 48.3659L25.6006 49.35ZM27.3149 52.1198V65.7631H29.3149V52.1198H27.3149ZM28.3075 64.7631L20.6208 64.8199L20.6355 66.8198L28.3223 66.7631L28.3075 64.7631ZM21.6281 65.8198V55.7221H19.6281V65.8198H21.6281ZM21.6281 55.7221C21.6281 54.342 21.3817 53.1149 20.8253 52.0948L19.0695 53.0525C19.4208 53.6965 19.6281 54.5683 19.6281 55.7221H21.6281ZM20.8253 52.0948C20.2757 51.0872 19.4841 50.3163 18.4658 49.8072L17.5714 51.5961C18.2172 51.9189 18.7115 52.3961 19.0695 53.0525L20.8253 52.0948ZM18.4737 49.8112C17.4535 49.2897 16.2789 49.0492 14.9836 49.0492V51.0492C16.0331 51.0492 16.8819 51.2437 17.5635 51.5921L18.4737 49.8112ZM14.9836 49.0492C13.6723 49.0492 12.4875 49.2887 11.4652 49.8112L12.3754 51.5921C13.0549 51.2447 13.9124 51.0492 14.9836 51.0492V49.0492ZM11.4652 49.8112C10.4305 50.34 9.62984 51.1303 9.08079 52.1598L10.8455 53.101C11.2041 52.4286 11.7082 51.9331 12.3754 51.5921L11.4652 49.8112ZM9.08525 52.1515C8.53099 53.1677 8.2824 54.3739 8.2824 55.7221H10.2824C10.2824 54.6121 10.4876 53.7572 10.841 53.1093L9.08525 52.1515ZM8.2824 55.7221V62.019H10.2824V55.7221H8.2824ZM9.2824 63.019H42.8942V61.019H9.2824V63.019ZM41.8942 62.019V71.9749H43.8942V62.019H41.8942ZM42.8942 70.9749H1.59565V72.9749H42.8942V70.9749ZM42.447 48.4741L24.1803 57.6074L25.0747 59.3963L43.3414 50.2629L42.447 48.4741ZM25.6275 58.4965L25.5708 47.9449L23.5708 47.9557L23.6275 58.5072L25.6275 58.4965ZM25.0298 48.8387L42.9277 39.5919L42.0097 37.8151L24.1118 47.0618L25.0298 48.8387ZM42.4687 39.7035H42.8942V37.7035H42.4687V39.7035ZM41.8942 38.7035V49.3685H43.8942V38.7035H41.8942ZM9.98019 95.0263L42.5992 105.096L43.1891 103.185L10.5701 93.1152L9.98019 95.0263ZM41.8942 104.14V114.833H43.8942V104.14H41.8942ZM43.2391 113.895L1.94055 98.7199L1.25075 100.597L42.5493 115.772L43.2391 113.895ZM2.59565 99.6585V92.8795H0.595652V99.6585H2.59565ZM1.45967 93.8702L10.1392 95.0615L10.4111 93.08L1.73163 91.8887L1.45967 93.8702ZM42.5985 84.7764L9.97943 94.8741L10.5709 96.7846L43.1899 86.6869L42.5985 84.7764ZM10.1265 94.8405L1.447 96.1452L1.74431 98.123L10.4238 96.8182L10.1265 94.8405ZM2.59565 97.1341V90.2699H0.595652V97.1341H2.59565ZM1.94225 91.2079L43.2408 75.9479L42.5476 74.0719L1.24905 89.3319L1.94225 91.2079ZM41.8942 75.0099V85.7316H43.8942V75.0099H41.8942ZM27.4923 87.1287H35.1791V85.1287H27.4923V87.1287ZM34.1791 86.1287V107.317H36.1791V86.1287H34.1791ZM35.1791 106.317H27.4923V108.317H35.1791V106.317ZM28.4923 107.317V86.1287H26.4923V107.317H28.4923ZM2.59565 149.466V133.214H0.595652V149.466H2.59565ZM2.59565 133.214C2.59565 130.133 3.05432 127.505 3.94131 125.305L2.08643 124.557C1.08246 127.047 0.595652 129.94 0.595652 133.214H2.59565ZM3.94131 125.305C4.82262 123.12 6.10602 121.481 7.77618 120.339L6.64742 118.688C4.6113 120.08 3.09608 122.053 2.08643 124.557L3.94131 125.305ZM7.78188 120.335C9.43548 119.188 11.5138 118.585 14.076 118.585V116.585C11.1922 116.585 8.6944 117.268 6.64172 118.692L7.78188 120.335ZM14.076 118.585C16.3424 118.585 18.1642 118.939 19.583 119.598L20.4252 117.784C18.6672 116.968 16.5369 116.585 14.076 116.585V118.585ZM19.583 119.598C21.0346 120.272 22.2217 121.206 23.1605 122.401L24.7331 121.165C23.5918 119.712 22.1505 118.585 20.4252 117.784L19.583 119.598ZM23.1593 122.399C24.1114 123.616 24.9061 125.048 25.5366 126.705L27.4059 125.994C26.7127 124.172 25.8244 122.559 24.7343 121.166L23.1593 122.399ZM25.6006 126.841L27.4443 130.103L29.1855 129.119L27.3418 125.857L25.6006 126.841ZM27.3149 129.611V143.255H29.3149V129.611H27.3149ZM28.3075 142.255L20.6208 142.311L20.6355 144.311L28.3223 144.255L28.3075 142.255ZM21.6281 143.311V133.214H19.6281V143.311H21.6281ZM21.6281 133.214C21.6281 131.834 21.3817 130.606 20.8253 129.586L19.0695 130.544C19.4208 131.188 19.6281 132.06 19.6281 133.214H21.6281ZM20.8253 129.586C20.2757 128.579 19.4841 127.808 18.4658 127.299L17.5714 129.088C18.2172 129.41 18.7115 129.888 19.0695 130.544L20.8253 129.586ZM18.4737 127.303C17.4535 126.781 16.2789 126.541 14.9836 126.541V128.541C16.0331 128.541 16.8819 128.735 17.5635 129.084L18.4737 127.303ZM14.9836 126.541C13.6723 126.541 12.4875 126.78 11.4652 127.303L12.3754 129.084C13.0549 128.736 13.9123 128.541 14.9836 128.541V126.541ZM11.4652 127.303C10.4305 127.832 9.62984 128.622 9.08079 129.651L10.8455 130.592C11.2041 129.92 11.7082 129.425 12.3754 129.084L11.4652 127.303ZM9.08525 129.643C8.53099 130.659 8.2824 131.865 8.2824 133.214H10.2824C10.2824 132.104 10.4876 131.249 10.841 130.601L9.08525 129.643ZM8.2824 133.214V139.51H10.2824V133.214H8.2824ZM9.2824 140.51H42.8942V138.51H9.2824V140.51ZM41.8942 139.51V149.466H43.8942V139.51H41.8942ZM42.8942 148.466H1.59565V150.466H42.8942V148.466ZM42.447 125.966L24.1803 135.099L25.0747 136.888L43.3414 127.754L42.447 125.966ZM25.6275 135.988L25.5708 125.436L23.5708 125.447L23.6275 135.999L25.6275 135.988ZM25.0298 126.33L42.9277 117.083L42.0097 115.307L24.1118 124.553L25.0298 126.33ZM42.4687 117.195H42.8942V115.195H42.4687V117.195ZM41.8942 116.195V126.86H43.8942V116.195H41.8942ZM24.3366 170.116V180.752H26.3366V170.116H24.3366ZM25.3279 179.752L18.8041 179.809L18.8215 181.809L25.3453 181.752L25.3279 179.752ZM19.8128 180.809V172.186H17.8128V180.809H19.8128ZM19.8128 172.186C19.8128 170.577 19.6383 169.207 19.2409 168.126L17.3636 168.815C17.647 169.587 17.8128 170.694 17.8128 172.186H19.8128ZM19.2346 168.109C18.8159 167.029 18.1736 166.159 17.2637 165.603L16.2208 167.31C16.6723 167.586 17.0701 168.059 17.3699 168.832L19.2346 168.109ZM17.2806 165.614C16.4015 165.052 15.3513 164.804 14.1894 164.804V166.804C15.0698 166.804 15.7214 166.991 16.2038 167.299L17.2806 165.614ZM14.1894 164.804C12.9035 164.804 11.76 165.041 10.8352 165.601L11.8708 167.312C12.3831 167.002 13.1306 166.804 14.1894 166.804V164.804ZM10.8352 165.601C9.87879 166.18 9.22842 167.081 8.84618 168.205L10.7397 168.849C11.0004 168.082 11.3901 167.603 11.8708 167.312L10.8352 165.601ZM8.85429 168.182C8.45853 169.26 8.2824 170.589 8.2824 172.13H10.2824C10.2824 170.72 10.4466 169.648 10.7316 168.872L8.85429 168.182ZM8.2824 172.13V177.008H10.2824V172.13H8.2824ZM9.2824 178.008H42.8942V176.008H9.2824V178.008ZM41.8942 177.008V186.964H43.8942V177.008H41.8942ZM42.8942 185.964H1.59565V187.964H42.8942V185.964ZM2.59565 186.964V172.13H0.595652V186.964H2.59565ZM2.59565 172.13C2.59565 169.636 2.82669 167.437 3.27806 165.523L1.33146 165.064C0.837354 167.159 0.595652 169.517 0.595652 172.13H2.59565ZM3.28007 165.515C3.71225 163.606 4.36966 162.025 5.23231 160.748L3.57514 159.628C2.54683 161.15 1.80493 162.973 1.32945 165.073L3.28007 165.515ZM5.23577 160.743C6.0921 159.458 7.15718 158.5 8.43419 157.844L7.52108 156.065C5.92383 156.885 4.60631 158.081 3.57167 159.633L5.23577 160.743ZM8.43899 157.842C9.68815 157.192 11.1971 156.848 12.9981 156.848V154.848C10.9416 154.848 9.10356 155.242 7.51628 156.067L8.43899 157.842ZM12.9981 156.848C14.5334 156.848 15.9621 157.175 17.297 157.825L18.1729 156.027C16.558 155.24 14.8288 154.848 12.9981 154.848V156.848ZM17.297 157.825C18.5563 158.439 19.6167 159.477 20.4612 161.011L22.2133 160.046C21.2047 158.214 19.8636 156.851 18.1729 156.027L17.297 157.825ZM20.4594 161.007C21.2586 162.473 21.7188 164.569 21.7556 167.377L23.7554 167.351C23.7165 164.373 23.2312 161.912 22.2152 160.05L20.4594 161.007ZM22.0262 168.048L24.6073 170.8L26.0659 169.431L23.4848 166.68L22.0262 168.048ZM41.8942 170.513V183.163H43.8942V170.513H41.8942ZM43.3003 182.249L35.6419 178.846L34.8297 180.673L42.488 184.077L43.3003 182.249ZM36.2358 179.76V170.513H34.2358V179.76H36.2358ZM36.2358 170.513C36.2358 169.064 36.0169 167.802 35.502 166.795L33.7215 167.706C34.0387 168.326 34.2358 169.238 34.2358 170.513H36.2358ZM35.498 166.788C34.9864 165.809 34.2834 165.045 33.3667 164.574L32.4531 166.353C32.9357 166.601 33.3674 167.029 33.7256 167.714L35.498 166.788ZM33.3757 164.579C32.5033 164.12 31.5476 163.897 30.5273 163.897V165.897C31.2467 165.897 31.8794 166.052 32.4442 166.349L33.3757 164.579ZM30.5273 163.897C29.357 163.897 28.2902 164.095 27.3555 164.528L28.1964 166.343C28.8123 166.057 29.5797 165.897 30.5273 165.897V163.897ZM27.374 164.52C26.393 164.951 25.6326 165.654 25.1128 166.599L26.8652 167.563C27.1774 166.995 27.6084 166.601 28.178 166.351L27.374 164.52ZM25.1221 166.582C24.5693 167.544 24.3366 168.748 24.3366 170.116H26.3366C26.3366 168.95 26.5389 168.13 26.8559 167.579L25.1221 166.582ZM24.3366 170.116V178.483H26.3366V170.116H24.3366ZM25.3453 177.483L18.8215 177.426L18.8041 179.426L25.3279 179.483L25.3453 177.483ZM19.8128 178.426V168.414H17.8128V178.426H19.8128ZM19.4782 169.16L22.0877 166.834L20.757 165.341L18.1475 167.667L19.4782 169.16ZM22.4215 166.047C22.312 163.383 22.6943 161.405 23.4604 160.02L21.7102 159.052C20.6988 160.881 20.3057 163.271 20.4232 166.129L22.4215 166.047ZM23.4628 160.015C24.2665 158.545 25.2951 157.544 26.5356 156.948L25.6694 155.146C23.9978 155.949 22.6816 157.274 21.7078 159.056L23.4628 160.015ZM26.5356 156.948C27.8588 156.312 29.2333 155.997 30.6691 155.997V153.997C28.9282 153.997 27.2582 154.382 25.6694 155.146L26.5356 156.948ZM30.6691 155.997C33.229 155.997 35.2883 156.552 36.9057 157.596L37.9907 155.916C35.9775 154.616 33.5174 153.997 30.6691 153.997V155.997ZM36.9119 157.6C38.5222 158.623 39.7597 160.172 40.6021 162.313L42.4633 161.581C41.4904 159.108 40.0049 157.196 37.9845 155.912L36.9119 157.6ZM40.6021 162.313C41.4503 164.469 41.8942 167.191 41.8942 170.513H43.8942C43.8942 167.027 43.4304 164.039 42.4633 161.581L40.6021 162.313ZM1.59565 194.97H42.8942V192.97H1.59565V194.97ZM41.8942 193.97V203.898H43.8942V193.97H41.8942ZM42.8942 202.898H1.59565V204.898H42.8942V202.898ZM2.59565 203.898V193.97H0.595652V203.898H2.59565ZM35.2358 209.748H42.8942V207.748H35.2358V209.748ZM41.8942 208.748V229.624H43.8942V208.748H41.8942ZM42.8942 228.624H35.2358V230.624H42.8942V228.624ZM36.2358 229.624V208.748H34.2358V229.624H36.2358ZM1.59565 227.079H42.8942V225.079H1.59565V227.079ZM41.8942 226.079V236.034H43.8942V226.079H41.8942ZM42.8942 235.034H1.59565V237.034H42.8942V235.034ZM2.59565 236.034V226.079H0.595652V236.034H2.59565ZM1.59565 257.797H42.8942V255.797H1.59565V257.797ZM41.8942 256.797V266.725H43.8942V256.797H41.8942ZM42.4 265.855L16.7019 280.463L17.6902 282.202L43.3884 267.594L42.4 265.855ZM17.1961 282.332H42.8942V280.332H17.1961V282.332ZM41.8942 281.332V291.288H43.8942V281.332H41.8942ZM42.8942 290.288H1.59565V292.288H42.8942V290.288ZM2.59565 291.288V281.332H0.595652V291.288H2.59565ZM2.08983 282.202L27.7879 267.594L26.7996 265.855L1.10148 280.463L2.08983 282.202ZM27.2938 265.725H1.59565V267.725H27.2938V265.725ZM2.59565 266.725V256.797H0.595652V266.725H2.59565ZM20.8267 298.103H37.7886V296.103H20.8267V298.103ZM37.1186 297.845C37.7916 298.453 38.5651 299.439 39.4311 300.857L41.1382 299.815C40.2267 298.322 39.3361 297.153 38.4586 296.361L37.1186 297.845ZM39.4292 300.854C40.2397 302.193 40.9559 303.92 41.5636 306.056L43.4873 305.509C42.8469 303.258 42.0693 301.354 41.1402 299.819L39.4292 300.854ZM41.5636 306.056C42.156 308.138 42.4615 310.623 42.4615 313.526H44.4615C44.4615 310.491 44.1429 307.813 43.4873 305.509L41.5636 306.056ZM42.4615 313.526C42.4615 316.161 42.0437 318.522 41.225 320.623L43.0884 321.349C44.0094 318.986 44.4615 316.374 44.4615 313.526H42.4615ZM41.2277 320.616C40.3914 322.715 39.1774 324.512 37.5842 326.017L38.9574 327.471C40.7679 325.761 42.1446 323.719 43.0857 321.356L41.2277 320.616ZM37.5925 326.009C35.9834 327.494 34.0067 328.657 31.6426 329.488L32.3052 331.375C34.8954 330.465 37.1166 329.17 38.9491 327.479L37.5925 326.009ZM31.6512 329.485C29.2789 330.293 26.5359 330.707 23.4079 330.707V332.707C26.7091 332.707 29.6767 332.271 32.2966 331.378L31.6512 329.485ZM23.4079 330.707H21.1103V332.707H23.4079V330.707ZM21.1103 330.707C17.9843 330.707 15.2436 330.284 12.8734 329.458L12.2152 331.347C14.8371 332.261 17.8071 332.707 21.1103 332.707V330.707ZM12.8734 329.458C10.4884 328.627 8.51318 327.473 6.92535 326.009L5.56947 327.479C7.38536 329.153 9.60803 330.438 12.2152 331.347L12.8734 329.458ZM6.92569 326.009C5.30964 324.517 4.0891 322.774 3.25644 320.772L1.40981 321.54C2.35465 323.812 3.74363 325.793 5.56913 327.479L6.92569 326.009ZM3.25764 320.775C2.42363 318.752 2 316.519 2 314.065H0C0 316.754 0.465124 319.249 1.40862 321.537L3.25764 320.775ZM2 314.065C2 310.359 2.59159 307.438 3.7069 305.243L1.92374 304.337C0.618619 306.906 0 310.169 0 314.065H2ZM3.70975 305.237C4.82178 303.013 6.34677 301.36 8.28103 300.237L7.27714 298.507C4.97565 299.843 3.19147 301.801 1.92089 304.342L3.70975 305.237ZM8.28441 300.235C10.2415 299.089 12.5277 298.38 15.1642 298.127L14.9733 296.136C12.0881 296.413 9.51457 297.197 7.27377 298.509L8.28441 300.235ZM14.0687 297.131V306.69H16.0687V297.131H14.0687ZM14.9312 305.7C13.4781 305.901 12.1986 306.291 11.1197 306.895L12.0969 308.64C12.9089 308.186 13.9364 307.857 15.2063 307.681L14.9312 305.7ZM11.1404 306.884C9.99572 307.49 9.11922 308.377 8.53331 309.526L10.3151 310.435C10.7125 309.655 11.2921 309.067 12.0762 308.652L11.1404 306.884ZM8.54043 309.512C7.92902 310.667 7.65838 312.092 7.65838 313.724H9.65838C9.65838 312.294 9.8983 311.222 10.308 310.448L8.54043 309.512ZM7.65838 313.724C7.65838 315.064 7.94675 316.311 8.53672 317.447L10.3117 316.526C9.88057 315.695 9.65838 314.768 9.65838 313.724H7.65838ZM8.54043 317.454C9.14051 318.588 10.0409 319.531 11.2024 320.291L12.2978 318.617C11.3792 318.016 10.729 317.314 10.308 316.519L8.54043 317.454ZM11.1954 320.286C12.3377 321.048 13.7391 321.616 15.3707 322.014L15.8446 320.071C14.375 319.713 13.2047 319.222 12.3048 318.622L11.1954 320.286ZM15.3819 322.017C17.0251 322.397 18.9193 322.581 21.0536 322.581V320.581C19.0278 320.581 17.2914 320.406 15.8334 320.068L15.3819 322.017ZM21.0536 322.581H23.4079V320.581H21.0536V322.581ZM23.4079 322.581C25.521 322.581 27.4016 322.407 29.0399 322.048L28.611 320.094C27.1481 320.415 25.417 320.581 23.4079 320.581V322.581ZM29.0512 322.045C30.6898 321.665 32.1053 321.095 33.2695 320.312L32.1532 318.653C31.2374 319.269 30.0623 319.758 28.5997 320.097L29.0512 322.045ZM33.2869 320.3C34.4435 319.486 35.3324 318.448 35.9378 317.194L34.1367 316.325C33.6831 317.264 33.0215 318.041 32.1359 318.665L33.2869 320.3ZM35.9466 317.176C36.5291 315.903 36.8031 314.441 36.8031 312.817H34.8031C34.8031 314.219 34.5665 315.385 34.1279 316.343L35.9466 317.176ZM36.8031 312.817C36.8031 311.709 36.7145 310.724 36.5234 309.874L34.5722 310.313C34.7215 310.977 34.8031 311.807 34.8031 312.817H36.8031ZM36.518 309.851C36.316 309.044 36.0637 308.335 35.7475 307.748L33.9866 308.696C34.1998 309.092 34.4014 309.631 34.5777 310.336L36.518 309.851ZM35.7412 307.736C35.4393 307.193 35.1293 306.727 34.8057 306.378L33.3401 307.739C33.5081 307.92 33.7275 308.23 33.9929 308.707L35.7412 307.736ZM34.0729 306.059H27.6625V308.059H34.0729V306.059ZM26.6625 307.059V313.98H28.6625V307.059H26.6625ZM27.6625 312.98H20.8267V314.98H27.6625V312.98ZM21.8267 313.98V297.103H19.8267V313.98H21.8267ZM1.59565 338.891H42.8942V336.891H1.59565V338.891ZM41.8942 337.891V347.818H43.8942V337.891H41.8942ZM42.8942 346.818H1.59565V348.818H42.8942V346.818ZM2.59565 347.818V337.891H0.595652V347.818H2.59565ZM31.9172 362.561C31.1766 362.561 30.4794 362.67 29.8396 362.907L30.5343 364.782C30.9156 364.641 31.3718 364.561 31.9172 364.561V362.561ZM29.8506 362.903C29.1324 363.159 28.5062 363.62 27.9646 364.229L29.4594 365.558C29.8255 365.146 30.1826 364.908 30.5233 364.786L29.8506 362.903ZM27.9646 364.229C27.422 364.84 26.9202 365.672 26.4457 366.68L28.2553 367.532C28.6885 366.612 29.0944 365.969 29.4594 365.558L27.9646 364.229ZM26.4561 366.659C25.9533 367.665 25.4442 368.963 24.9257 370.538L26.8254 371.163C27.328 369.637 27.8022 368.439 28.2449 367.553L26.4561 366.659ZM24.9269 370.534C24.332 372.319 23.6633 374.037 22.9212 375.688L24.7454 376.508C25.5161 374.793 26.2089 373.013 26.8242 371.167L24.9269 370.534ZM22.9251 375.679C22.1779 377.301 21.3175 378.739 20.3469 379.997L21.9305 381.218C23.0022 379.829 23.9382 378.26 24.7416 376.516L22.9251 375.679ZM20.3524 379.99C19.3884 381.217 18.277 382.177 17.0184 382.884L17.9978 384.628C19.4999 383.784 20.809 382.646 21.925 381.225L20.3524 379.99ZM17.0234 382.881C15.7944 383.562 14.3401 383.919 12.6294 383.919V385.919C14.625 385.919 16.4231 385.5 17.9927 384.631L17.0234 382.881ZM12.6294 383.919C11.0066 383.919 9.57965 383.558 8.32442 382.855L7.34721 384.6C8.92842 385.486 10.6972 385.919 12.6294 385.919V383.919ZM8.3195 382.853C7.02202 382.135 5.91374 381.134 4.99348 379.832L3.36014 380.986C4.44429 382.52 5.77535 383.732 7.35213 384.603L8.3195 382.853ZM4.99199 379.83C4.04705 378.5 3.31789 376.927 2.81526 375.096L0.886605 375.625C1.4429 377.651 2.26434 379.444 3.36163 380.988L4.99199 379.83ZM2.81281 375.087C2.29299 373.258 2.02836 371.243 2.02836 369.035H0.0283644C0.0283644 371.403 0.312113 373.605 0.889052 375.634L2.81281 375.087ZM2.02836 369.035C2.02836 366.126 2.53715 363.607 3.5256 361.453L1.70794 360.619C0.578516 363.08 0.0283644 365.893 0.0283644 369.035H2.02836ZM3.52966 361.444C4.50102 359.272 5.87027 357.609 7.63029 356.419L6.50967 354.762C4.41213 356.181 2.81257 358.149 1.70388 360.628L3.52966 361.444ZM7.63961 356.412C9.36197 355.218 11.4171 354.605 13.8491 354.605V352.605C11.062 352.605 8.59772 353.315 6.50034 354.768L7.63961 356.412ZM12.8491 353.605V363.504H14.8491V353.605H12.8491ZM13.8491 362.504C12.6663 362.504 11.5795 362.752 10.6174 363.279L11.578 365.033C12.2044 364.69 12.9517 364.504 13.8491 364.504V362.504ZM10.6337 363.271C9.64788 363.787 8.8842 364.572 8.34331 365.586L10.108 366.527C10.4748 365.84 10.9592 365.358 11.5617 365.042L10.6337 363.271ZM8.34331 365.586C7.79081 366.622 7.54492 367.864 7.54492 369.262H9.54492C9.54492 368.088 9.75287 367.193 10.108 366.527L8.34331 365.586ZM7.54492 369.262C7.54492 370.605 7.74755 371.802 8.1984 372.817L10.026 372.004C9.72049 371.317 9.54492 370.415 9.54492 369.262H7.54492ZM8.1984 372.817C8.6373 373.804 9.25714 374.608 10.0836 375.167L11.2042 373.511C10.7448 373.2 10.3435 372.719 10.026 372.004L8.1984 372.817ZM10.0721 375.16C10.8629 375.711 11.7524 375.992 12.7145 375.992V373.992C12.1638 373.992 11.6729 373.837 11.2157 373.519L10.0721 375.16ZM12.7145 375.992C13.5324 375.992 14.2933 375.765 14.971 375.313L13.8616 373.649C13.5183 373.878 13.1446 373.992 12.7145 373.992V375.992ZM15.0064 375.288C15.6127 374.845 16.1519 374.251 16.6345 373.538L14.9779 372.417C14.5907 372.99 14.2033 373.398 13.8263 373.674L15.0064 375.288ZM16.6419 373.527C17.1165 372.805 17.559 371.956 17.9734 370.989L16.1351 370.201C15.7552 371.087 15.3657 371.827 14.9705 372.428L16.6419 373.527ZM17.9762 370.982C18.3863 370.006 18.7836 368.92 19.1689 367.725L17.2655 367.111C16.8944 368.262 16.5164 369.293 16.1323 370.208L17.9762 370.982ZM19.1699 367.722C19.8562 365.57 20.6213 363.675 21.4619 362.03L19.681 361.12C18.7819 362.879 17.9775 364.879 17.2645 367.114L19.1699 367.722ZM21.4678 362.018C22.2836 360.369 23.2048 359.007 24.2232 357.919L22.7627 356.552C21.5876 357.808 20.5611 359.34 19.675 361.132L21.4678 362.018ZM24.2345 357.906C25.2239 356.813 26.3392 356.001 27.5818 355.457L26.7788 353.625C25.2607 354.29 23.9177 355.275 22.7514 356.564L24.2345 357.906ZM27.5922 355.452C28.8253 354.895 30.2418 354.605 31.8604 354.605V352.605C29.9997 352.605 28.2961 352.939 26.7684 353.63L27.5922 355.452ZM31.8604 354.605C33.5822 354.605 35.0702 354.938 36.3486 355.577L37.2431 353.788C35.6472 352.99 33.845 352.605 31.8604 352.605V354.605ZM36.3486 355.577C37.6402 356.223 38.7405 357.149 39.6535 358.373L41.2562 357.176C40.1648 355.714 38.8257 354.58 37.2431 353.788L36.3486 355.577ZM39.6481 358.365C40.5482 359.594 41.2472 361.086 41.7309 362.859L43.6604 362.333C43.1229 360.362 42.3281 358.64 41.2616 357.183L39.6481 358.365ZM41.7309 362.859C42.2141 364.631 42.4615 366.631 42.4615 368.865H44.4615C44.4615 366.485 44.1983 364.305 43.6604 362.333L41.7309 362.859ZM42.4615 368.865C42.4615 370.898 42.2074 372.904 41.6987 374.885L43.6358 375.382C44.1861 373.24 44.4615 371.067 44.4615 368.865H42.4615ZM41.7015 374.874C41.18 376.816 40.3919 378.568 39.3406 380.136L41.0018 381.25C42.1819 379.49 43.0578 377.535 43.6331 375.393L41.7015 374.874ZM39.345 380.129C38.2965 381.667 36.9634 382.896 35.3363 383.823L36.3266 385.561C38.2166 384.484 39.7767 383.046 40.9974 381.256L39.345 380.129ZM35.3474 383.817C33.7451 384.703 31.8101 385.167 29.5062 385.167V387.167C32.0809 387.167 34.3628 386.647 36.3155 385.567L35.3474 383.817ZM30.5062 386.167V376.183H28.5062V386.167H30.5062ZM29.5062 377.183C30.7985 377.183 31.95 377.012 32.9299 376.633L32.2091 374.768C31.5251 375.032 30.6343 375.183 29.5062 375.183V377.183ZM32.9299 376.633C33.9058 376.256 34.7259 375.687 35.3574 374.916L33.8095 373.649C33.4198 374.125 32.8973 374.502 32.2091 374.768L32.9299 376.633ZM35.3689 374.901C35.9622 374.148 36.3762 373.248 36.6314 372.227L34.6911 371.742C34.4925 372.537 34.188 373.168 33.7979 373.664L35.3689 374.901ZM36.636 372.208C36.8645 371.211 36.9733 370.094 36.9733 368.865H34.9733C34.9733 369.98 34.8741 370.943 34.6865 371.762L36.636 372.208ZM36.9733 368.865C36.9733 367.517 36.7842 366.336 36.3417 365.381L34.527 366.222C34.8031 366.818 34.9733 367.679 34.9733 368.865H36.9733ZM36.3331 365.363C35.8888 364.452 35.2772 363.719 34.4699 363.24L33.4489 364.959C33.8518 365.199 34.2235 365.6 34.5356 366.24L36.3331 365.363ZM34.4584 363.233C33.6788 362.784 32.8254 362.561 31.9172 362.561V364.561C32.4839 364.561 32.992 364.697 33.4604 364.966L34.4584 363.233ZM35.2358 389.918H42.8942V387.918H35.2358V389.918ZM41.8942 388.918V410.929H43.8942V388.918H41.8942ZM42.8942 409.929H35.2358V411.929H42.8942V409.929ZM36.2358 410.929V388.918H34.2358V410.929H36.2358ZM1.59565 408.384H42.8942V406.384H1.59565V408.384ZM41.8942 407.384V417.34H43.8942V407.384H41.8942ZM42.8942 416.34H1.59565V418.34H42.8942V416.34ZM2.59565 417.34V407.384H0.595652V417.34H2.59565ZM17.9903 392.755H25.3934V390.755H17.9903V392.755ZM24.3934 391.755V410.929H26.3934V391.755H24.3934ZM25.3934 409.929H17.9903V411.929H25.3934V409.929ZM18.9903 410.929V391.755H16.9903V410.929H18.9903ZM1.59565 389.833H9.2824V387.833H1.59565V389.833ZM8.2824 388.833V410.929H10.2824V388.833H8.2824ZM9.2824 409.929H1.59565V411.929H9.2824V409.929ZM2.59565 410.929V388.833H0.595652V410.929H2.59565ZM41.8942 441.534V450.696H43.8942V441.534H41.8942ZM42.9016 449.696L35.2432 449.639L35.2284 451.639L42.8868 451.696L42.9016 449.696ZM36.2358 450.639V441.534H34.2358V450.639H36.2358ZM36.2358 441.534C36.2358 439.479 35.7402 437.672 34.6952 436.17L33.0534 437.312C33.8237 438.419 34.2358 439.808 34.2358 441.534H36.2358ZM34.699 436.175C33.6548 434.652 32.1215 433.538 30.1726 432.799L29.4638 434.669C31.1078 435.292 32.2785 436.182 33.0496 437.306L34.699 436.175ZM30.1778 432.801C28.2146 432.044 25.853 431.685 23.1242 431.685V433.685C25.6901 433.685 27.7912 434.025 29.4586 434.667L30.1778 432.801ZM23.1242 431.685H21.3373V433.685H23.1242V431.685ZM21.3373 431.685C19.2883 431.685 17.4588 431.889 15.8613 432.314L16.3751 434.247C17.7653 433.877 19.4152 433.685 21.3373 433.685V431.685ZM15.8757 432.31C14.2632 432.713 12.8753 433.33 11.7433 434.184L12.9482 435.78C13.8206 435.122 14.9477 434.604 16.3607 434.25L15.8757 432.31ZM11.7505 434.179C10.595 435.035 9.71862 436.114 9.13631 437.408L10.9602 438.229C11.399 437.254 12.0542 436.443 12.941 435.786L11.7505 434.179ZM9.13893 437.402C8.55849 438.671 8.2824 440.103 8.2824 441.676H10.2824C10.2824 440.337 10.5169 439.198 10.9575 438.235L9.13893 437.402ZM8.2824 441.676V450.866H10.2824V441.676H8.2824ZM9.2824 449.866H1.59565V451.866H9.2824V449.866ZM2.59565 450.866V441.676H0.595652V450.866H2.59565ZM2.59565 441.676C2.59565 438.994 3.05726 436.564 3.96598 434.372L2.11849 433.606C1.09843 436.067 0.595652 438.761 0.595652 441.676H2.59565ZM3.96968 434.363C4.86361 432.146 6.14605 430.243 7.81828 428.642L6.43513 427.197C4.55236 429 3.11181 431.143 2.11479 433.615L3.96968 434.363ZM7.82608 428.634C9.48173 427.014 11.4531 425.763 13.7527 424.882L13.0377 423.015C10.4965 423.987 8.28886 425.383 6.42732 427.205L7.82608 428.634ZM13.7616 424.879C16.0317 423.985 18.5715 423.53 21.394 423.53V421.53C18.3545 421.53 15.5618 422.021 13.0289 423.018L13.7616 424.879ZM21.394 423.53H23.1242V421.53H21.394V423.53ZM23.1242 423.53C25.9268 423.53 28.4678 423.985 30.7591 424.88L31.4868 423.017C28.9373 422.021 26.1458 421.53 23.1242 421.53V423.53ZM30.7655 424.882C33.0674 425.764 35.0401 427.007 36.6961 428.61L38.0869 427.172C36.2257 425.371 34.0194 423.986 31.4805 423.015L30.7655 424.882ZM36.6961 428.61C38.3535 430.214 39.6386 432.112 40.5522 434.316L42.3997 433.55C41.3845 431.101 39.9466 428.972 38.0869 427.172L36.6961 428.61ZM40.5507 434.312C41.4418 436.486 41.8942 438.89 41.8942 441.534H43.8942C43.8942 438.657 43.4011 435.993 42.4013 433.553L40.5507 434.312ZM1.59565 445.995H42.8942V443.995H1.59565V445.995ZM41.8942 444.995V454.951H43.8942V444.995H41.8942ZM42.8942 453.951H1.59565V455.951H42.8942V453.951ZM2.59565 454.951V444.995H0.595652V454.951H2.59565Z" fill="#717171" mask="url(#path-1-outside-1_110_38)"/>
</svg>
